<svg width="128" height="128" xmlns="http://www.w3.org/2000/svg">
  <rect width="128" height="128" rx="18" fill="#1A2616"/>
  <g stroke="#3B552E" stroke-width="0.8" opacity="0.85">
    <line x1="12" y1="0" x2="12" y2="128"/>
    <line x1="24" y1="0" x2="24" y2="128"/>
    <line x1="36" y1="0" x2="36" y2="128"/>
    <line x1="48" y1="0" x2="48" y2="128"/>
    <line x1="60" y1="0" x2="60" y2="128"/>
    <line x1="72" y1="0" x2="72" y2="128"/>
    <line x1="84" y1="0" x2="84" y2="128"/>
    <line x1="96" y1="0" x2="96" y2="128"/>
    <line x1="108" y1="0" x2="108" y2="128"/>
    <line x1="0" y1="12" x2="128" y2="12"/>
    <line x1="0" y1="24" x2="128" y2="24"/>
    <line x1="0" y1="36" x2="128" y2="36"/>
    <line x1="0" y1="48" x2="128" y2="48"/>
    <line x1="0" y1="60" x2="128" y2="60"/>
    <line x1="0" y1="72" x2="128" y2="72"/>
    <line x1="0" y1="84" x2="128" y2="84"/>
    <line x1="0" y1="96" x2="128" y2="96"/>
    <line x1="0" y1="108" x2="128" y2="108"/>
  </g>

  <rect x="36" y="36" width="10" height="10" fill="#A7C96B"/>
  <rect x="48" y="36" width="10" height="10" fill="#A7C96B"/>
  <rect x="60" y="36" width="10" height="10" fill="#A7C96B"/>
  <rect x="72" y="36" width="10" height="10" fill="#A7C96B"/>
  <rect x="84" y="36" width="10" height="10" fill="#A7C96B"/>
  <rect x="84" y="48" width="10" height="10" fill="#A7C96B"/>
  <rect x="84" y="60" width="10" height="10" fill="#A7C96B"/>
  <rect x="84" y="72" width="10" height="10" fill="#A7C96B"/>
  <rect x="84" y="84" width="10" height="10" fill="#A7C96B"/>
  <rect x="72" y="84" width="10" height="10" fill="#A7C96B"/>
  <rect x="60" y="84" width="10" height="10" fill="#A7C96B"/>
  <rect x="48" y="84" width="10" height="10" fill="#A7C96B"/>
  <rect x="36" y="84" width="10" height="10" fill="#A7C96B"/>
  <rect x="36" y="72" width="10" height="10" fill="#A7C96B"/>
  <rect x="36" y="48" width="10" height="10" fill="#A7C96B"/>
  <rect x="36" y="60" width="10" height="10" fill="#ECF6D6"/>
  <rect x="42" y="62" width="1.5" height="1.5" fill="#24351B"/>
  <rect x="42" y="66" width="1.5" height="1.5" fill="#24351B"/>

  <rect x="60" y="60" width="10" height="10" fill="#E26052"/>
  <rect x="63.5" y="55" width="3" height="5" fill="#5B8A3B"/>
</svg>
